<?xml version="1.0" encoding="UTF-8"?><svg id="_레이어_2" xmlns="http://www.w3.org/2000/svg" viewBox="0 0 36 31.17"><defs><style>.cls-1{stroke:#323333;}.cls-1,.cls-2{fill:none;stroke-linecap:round;stroke-linejoin:round;stroke-width:3px;}.cls-2{stroke:#0090ff;}</style></defs><g id="_레이어_1-2"><path class="cls-1" d="M29.67,29.67c6.44-6.44,6.44-16.89,0-23.33-6.44-6.44-16.89-6.44-23.33,0C-.11,12.78-.11,23.22,6.33,29.67"/><path class="cls-1" d="M24.48,24.48c3.58-3.58,3.58-9.38,0-12.96-3.58-3.58-9.38-3.58-12.96,0-3.58,3.58-3.58,9.38,0,12.96"/><path class="cls-2" d="M16.17,18c0,1.01,.82,1.83,1.83,1.83s1.83-.82,1.83-1.83-.82-1.83-1.83-1.83-1.83,.82-1.83,1.83"/></g></svg>