<?xml version="1.0" encoding="UTF-8"?><svg id="_레이어_2" xmlns="http://www.w3.org/2000/svg" viewBox="0 0 46.31 46.31"><defs><style>.cls-1{fill:#999;stroke-miterlimit:10;}.cls-1,.cls-2{stroke:#999;}.cls-2{fill:none;stroke-linecap:round;stroke-linejoin:round;stroke-width:2.5px;}</style></defs><g id="icon"><circle class="cls-2" cx="23.16" cy="23.16" r="21.91"/><path class="cls-2" d="M32.45,29.13c0,4.4-4.16,7.97-9.29,7.97s-9.29-3.57-9.29-7.97h18.59Z"/><path class="cls-1" d="M19.81,16.99c-.15-1.27-1.07-2.28-2.2-2.44-1-.14-1.91,.38-2.42,1.23-.51-.85-1.42-1.37-2.42-1.23-1.13,.15-2.05,1.17-2.2,2.44-.07,.6,.02,1.17,.23,1.66,.12,.28,.3,.53,.49,.75l2.9,3.29c.53,.6,1.46,.6,1.99,0l2.9-3.29c.2-.22,.37-.47,.49-.75,.21-.49,.31-1.06,.23-1.66Z"/><path class="cls-1" d="M35.74,16.99c-.15-1.27-1.07-2.28-2.2-2.44-1-.14-1.91,.38-2.42,1.23-.51-.85-1.42-1.37-2.42-1.23-1.13,.15-2.05,1.17-2.2,2.44-.07,.6,.02,1.17,.23,1.66,.12,.28,.3,.53,.49,.75l2.9,3.29c.53,.6,1.46,.6,1.99,0l2.9-3.29c.2-.22,.37-.47,.49-.75,.21-.49,.31-1.06,.23-1.66Z"/></g></svg>