<?xml version="1.0" encoding="UTF-8"?><svg id="_레이어_2" xmlns="http://www.w3.org/2000/svg" viewBox="0 0 46.31 46.31"><defs><style>.cls-1{fill:#0090ff;stroke-miterlimit:10;}.cls-1,.cls-2{stroke:#0090ff;}.cls-2{fill:none;stroke-linecap:round;stroke-linejoin:round;stroke-width:2.5px;}</style></defs><g id="icon"><path class="cls-2" d="M17.25,21.26c-1.03,1.03-2.46,1.67-4.04,1.67s-2.94-.61-3.97-1.6"/><path class="cls-2" d="M37.16,21.26c-1.03,1.03-2.46,1.67-4.04,1.67s-2.94-.61-3.97-1.6"/><path class="cls-2" d="M27.14,34.61c0,2.2-1.78,2.49-3.98,2.49s-3.98-.29-3.98-2.49,.01-5.48,3.98-5.48,3.98,3.28,3.98,5.48Z"/><circle class="cls-2" cx="23.16" cy="23.16" r="21.91"/><path class="cls-1" d="M10.4,30.89c0-2.09,2.84-5.22,2.84-5.22,0,0,2.84,3.12,2.84,5.22s-1.27,3.32-2.84,3.32-2.84-1.22-2.84-3.32Z"/></g></svg>