<?xml version="1.0" encoding="UTF-8"?><svg id="_레이어_2" xmlns="http://www.w3.org/2000/svg" viewBox="0 0 31.51 34.32"><defs><style>.cls-1{stroke:#333;}.cls-1,.cls-2{fill:none;stroke-linecap:round;stroke-linejoin:round;stroke-width:1.5px;}.cls-2{stroke:#0076ff;}</style></defs><g id="image"><polyline class="cls-1" points="26.32 30.13 30.76 30.13 30.76 5.24 7.22 5.24"/><path class="cls-1" d="M.75,26.64c0,1.93,1.56,3.49,3.49,3.49H14.37"/><path class="cls-1" d="M5.13,.75C2.71,.75,.75,2.71,.75,5.13V27.19c0-2.42,1.96-4.38,4.38-4.38h2.09V.75h-2.09Z"/><line class="cls-1" x1="11.61" y1="9.81" x2="18.64" y2="9.81"/><line class="cls-1" x1="11.61" y1="12.62" x2="18.64" y2="12.62"/><line class="cls-1" x1="11.61" y1="15.56" x2="18.64" y2="15.56"/><path class="cls-2" d="M27.26,26.66c0,3.82-3.09,6.91-6.91,6.91s-6.91-3.09-6.91-6.91,3.09-6.91,6.91-6.91,6.91,3.09,6.91,6.91Z"/><polyline class="cls-2" points="17.76 26.75 19.65 28.65 22.93 25.37"/></g></svg>