<?xml version="1.0" encoding="UTF-8"?><svg id="_레이어_2" xmlns="http://www.w3.org/2000/svg" xmlns:xlink="http://www.w3.org/1999/xlink" viewBox="0 0 336.29 129.82"><defs><style>.cls-1{fill:#575756;}.cls-2{fill:#005eab;}.cls-3{clip-path:url(#clippath);}.cls-4{fill:none;}.cls-5{fill:#1c1c1b;}.cls-6{fill:#e30413;}</style><clipPath id="clippath"><rect class="cls-4" width="336.29" height="129.82"/></clipPath></defs><g id="_레이어_1-2"><rect class="cls-5" x="59.34" y="51.09" width="13.27" height="78.73"/><g class="cls-3"><path class="cls-5" d="M33.92,62.52c0,7.45-1.16,14.12-3.45,19.83-2.3,5.74-6.11,10.52-11.33,14.19C14,100.18,7.56,102.2,0,102.55v11.25c7.39-.45,13.95-1.84,19.52-4.15,5.66-2.35,10.31-5.38,13.82-9.01,3.51-3.64,6.41-8.17,8.61-13.46,2.2-5.31,3.75-10.89,4.6-16.6,.83-5.62,1.26-12.02,1.27-19.01H4.02v10.62h29.9v.36Z"/><path class="cls-5" d="M101.24,93.78h-13.18v25.15c0,2.99,1.13,5.58,3.36,7.69,2.24,2.12,5.17,3.19,8.71,3.19h54.31v-36.03h-13.18v6.22h-40.03v-6.22Zm40.03,25.33h-40.03v-8.31h40.03v8.31Z"/><path class="cls-5" d="M129.6,65.56c-1.37-4.29-4.17-7.87-8.31-10.64-4.16-2.78-8.97-4.19-14.29-4.19-3.72,0-7.12,.59-10.11,1.76-2.99,1.16-5.43,2.73-7.28,4.67-1.85,1.94-3.3,4.16-4.32,6.61-1.01,2.44-1.53,4.97-1.53,7.5s.5,5.05,1.48,7.5c.98,2.45,2.42,4.67,4.27,6.6,1.84,1.93,4.31,3.5,7.32,4.67,3.02,1.17,6.44,1.76,10.16,1.76,5.39,0,10.22-1.41,14.38-4.19,4.15-2.77,6.98-6.39,8.41-10.74l.08-.25h11.41v13.72h13.27V51.27h-13.27v14.54h-11.59l-.08-.25Zm-14.98,12.29c-1.86,2.02-4.43,3.04-7.62,3.04s-5.75-1.02-7.58-3.04c-1.82-2.01-2.74-4.24-2.74-6.64s.92-4.63,2.74-6.64c1.83-2.02,4.38-3.04,7.58-3.04s5.84,1.02,7.67,3.04c1.82,2.01,2.75,4.25,2.75,6.64s-.94,4.63-2.79,6.64"/><path class="cls-5" d="M224.04,102.35l-.33,.03c-8.95,.68-15.95-.92-20.82-4.74-4.89-3.83-7.36-9.46-7.36-16.74v-18.83h19.84v-10.71h-46.73v10.71h13.72v18.92c0,6.16-1.77,11.15-5.27,14.83-3.41,3.59-7.54,5.72-12.29,6.34v11.54c5.27-.4,10.19-1.83,14.64-4.23,4.55-2.45,7.61-5.11,9.09-7.9l.31-.58,.32,.58c1.9,3.39,5.85,6.46,11.72,9.13,5.89,2.67,13.55,3.72,22.77,3.12l.39-.03v15.93h13.27V50.91h-13.27v23.95h-16.73v10.71h16.73v16.78Z"/><path class="cls-5" d="M306.71,105.31h-53.57v14.36c0,2.93,.96,5.33,2.85,7.15,1.9,1.81,4.6,2.73,8.03,2.73h55.77v-10.53h-53.48v-3.37h53.48v-24.15h-66.66v10.43h53.57v3.37Z"/><path class="cls-5" d="M285.14,68.65h21.48v7.12h-42.23v-24.5h-13.18v24.32c0,3.05,1.15,5.65,3.4,7.74,2.26,2.09,5.06,3.15,8.31,3.15h43.7v1.55h13.18V50.81h-13.18v7.5h-21.48v10.34Z"/><path class="cls-2" d="M336.29,23.06c0,12.73-10.32,23.06-23.06,23.06s-23.06-10.32-23.06-23.06S300.5,0,313.24,0s23.06,10.32,23.06,23.06"/><path class="cls-6" d="M285.35,23.06c0,9.54-7.73,17.27-17.27,17.27s-17.27-7.73-17.27-17.27,7.73-17.27,17.27-17.27,17.27,7.73,17.27,17.27"/><path class="cls-1" d="M21.52,26.37h-7.31v1.32c1.31,.22,2.35,.7,3.12,1.47,.77,.76,1.16,1.67,1.16,2.73,0,1.24-.52,2.27-1.57,3.08-1.05,.81-2.42,1.21-4.13,1.21s-3.06-.4-4.1-1.21c-1.05-.81-1.57-1.83-1.57-3.08,0-1.06,.38-1.97,1.15-2.73,.77-.76,1.81-1.25,3.11-1.47v-1.32H4.02v-2.23H21.52v2.23Zm-.23-5.09l-.85,1.89c-3.83-.42-6.36-1.48-7.61-3.21-1.29,1.75-3.86,2.84-7.7,3.25l-.76-1.94c.92-.17,1.7-.34,2.33-.51,.63-.17,1.27-.4,1.92-.69,.65-.29,1.19-.65,1.6-1.08,.41-.43,.72-.94,.9-1.55H5.34v-2.26h14.99v2.26h-5.79c.19,.6,.49,1.12,.9,1.55,.41,.43,.95,.79,1.6,1.08,.65,.29,1.3,.52,1.93,.69,.63,.17,1.41,.34,2.33,.51m-5.58,10.61c0-.62-.28-1.11-.84-1.49-.56-.38-1.25-.56-2.06-.56-.89,0-1.59,.18-2.11,.55-.52,.37-.77,.87-.77,1.5s.26,1.12,.77,1.49c.52,.36,1.22,.54,2.11,.54s1.6-.18,2.12-.54c.52-.36,.78-.86,.78-1.49"/><path class="cls-1" d="M42.14,24.61l-1.24,1.84c-1.82-.35-3.42-1.07-4.81-2.14-1.39-1.08-2.43-2.34-3.12-3.81-.68,1.46-1.71,2.73-3.11,3.81-1.4,1.07-3,1.79-4.8,2.14l-1.22-1.84c1.74-.48,3.18-1.22,4.34-2.22,1.15-1.01,1.99-2.13,2.5-3.38,.51-1.25,.8-2.64,.86-4.18h2.86c.09,2.37,.77,4.41,2.02,6.13,1.25,1.72,3.16,2.94,5.73,3.64m-.25,8H24.15v-2.24h7.4v-5.58h2.81v5.58h7.52v2.24Z"/><path class="cls-1" d="M45.71,15.94h10.86c-.03,1.69-.31,3.29-.83,4.79-.52,1.5-1.17,2.78-1.95,3.85-.78,1.07-1.68,2.03-2.7,2.89-1.02,.86-2.01,1.55-2.95,2.07-.94,.52-1.89,.94-2.85,1.25l-1.31-1.61c2.43-.98,4.55-2.51,6.38-4.58,1.82-2.07,2.79-4.22,2.89-6.47h-7.54v-2.19Zm16.42,19.65h-2.86V14.54h2.86v21.05Z"/><path class="cls-1" d="M82.93,26.32h-2.88v-4.84h-3.07c-.26,1.23-.92,2.24-1.96,3.03-1.04,.79-2.27,1.19-3.67,1.19-1.6,0-2.96-.51-4.08-1.54-1.12-1.03-1.68-2.27-1.68-3.74s.56-2.71,1.68-3.74c1.12-1.03,2.48-1.54,4.08-1.54,1.35,0,2.55,.39,3.59,1.15,1.04,.77,1.7,1.74,2,2.93h3.11v-4.68h2.88v11.78Zm-9.57-3.86c.55-.56,.83-1.24,.83-2.04s-.28-1.48-.83-2.05c-.55-.57-1.22-.85-2.01-.85s-1.43,.29-1.98,.85c-.55,.57-.83,1.25-.83,2.05s.28,1.48,.83,2.04c.55,.56,1.21,.84,1.98,.84s1.45-.28,2.01-.84m9.55,13.11h-13.7v-8.67h2.86v2.42h7.98v-2.42h2.86v8.67Zm-2.86-4.01h-7.98v1.82h7.98v-1.82Z"/><path class="cls-1" d="M101.83,29.5h-10.35V15.94h10.35v13.56Zm-2.86-11.35h-4.64v9.15h4.64v-9.15Zm9.18,17.43h-2.86V14.54h2.86v21.05Z"/><path class="cls-1" d="M128.51,35.59h-2.86v-6.85c-.88,.37-1.73,.55-2.56,.55h-11.25V15.94h10.58v2.21h-7.72v8.92h8.39c.75,0,1.61-.18,2.56-.53V14.54h2.86v21.05Z"/><path class="cls-1" d="M149.91,35.59h-2.88v-11.94h-2.95c-.2,1.69-.86,3.11-1.98,4.24-1.12,1.14-2.46,1.71-4.01,1.71-1.72,0-3.17-.68-4.35-2.03-1.18-1.35-1.76-2.97-1.76-4.86s.59-3.5,1.76-4.84c1.18-1.34,2.62-2.01,4.35-2.01,1.49,0,2.79,.53,3.89,1.58,1.1,1.05,1.79,2.37,2.06,3.95h3v-6.85h2.88v21.05Zm-9.5-9.59c.6-.94,.9-2.04,.9-3.3s-.3-2.35-.9-3.26c-.6-.91-1.38-1.37-2.33-1.37s-1.75,.46-2.34,1.37-.89,2-.89,3.26,.3,2.38,.89,3.31c.59,.93,1.37,1.39,2.34,1.39s1.73-.47,2.33-1.41"/><path class="cls-1" d="M176.82,23.69h-3.13v11.9h-2.88v-6.55c-.85,.31-1.62,.46-2.33,.46h-11.85v-2.19h2.26v-9.15h-2.26v-2.21h12.77v2.21h-2.35v9.15h1.29c.75,0,1.57-.15,2.47-.46V14.54h2.88v6.92h3.13v2.24Zm-12.59-5.54h-2.51v9.15h2.51v-9.15Z"/><path class="cls-1" d="M196.42,32.62h-17.76v-2.24h17.76v2.24Zm-1.15-5.28h-15.08V15.41h14.6v2.26h-11.74v2.65h11.74v2.24h-11.74v2.56h12.22v2.21Z"/><path class="cls-1" d="M215.35,35.59h-2.86v-7.72c-.57,.31-1.31,.58-2.22,.83-.92,.25-1.74,.37-2.48,.37h-8.86V15.94h2.84v10.91h6.02c1.51,0,3.08-.37,4.7-1.11v-3.27h-5.81v-2.26h5.81v-5.67h2.86v21.05Z"/></g></g></svg>